<?xml version="1.0" encoding="UTF-8" standalone="no"?>
<svg width="43px" height="39px" viewBox="0 0 43 39" version="1.1" xmlns="http://www.w3.org/2000/svg" xmlns:xlink="http://www.w3.org/1999/xlink">
    <!-- Generator: Sketch 3.8.3 (29802) - http://www.bohemiancoding.com/sketch -->
    <title>Cube 02 Logo</title>
    <desc>Created with Sketch.</desc>
    <defs></defs>
    <g id="Module-02-Templates" stroke="none" stroke-width="1" fill="none" fill-rule="evenodd">
        <g id="#8-Web-App" transform="translate(-150.000000, -2965.000000)">
            <g id="Footer-#8" transform="translate(0.000000, 2934.000000)">
                <g id="Cube-02-Logo" style="mix-blend-mode: multiply;" transform="translate(150.000000, 31.000000)">
                    <polygon id="Shape" fill="#FFFFFF" points="17.7214727 38.071488 0.781818182 27.151488 0.781818182 16.037268 17.7214727 5.117268 34.6611273 16.037268 34.6611273 27.151488"></polygon>
                    <path d="M38.8220466,2.92955572 C38.8106652,2.80465218 38.7879026,2.66839377 38.7879026,2.5548451 C38.7879026,1.79406901 39.209012,1.19226105 40.0739935,1.19226105 C40.9048309,1.19226105 41.314559,1.73729467 41.314559,2.33910263 C41.314559,2.87278138 41.0300256,3.3156212 40.3699082,3.72439642 L39.1521053,4.48517251 C37.8660144,5.28001321 37.4221423,6.26788665 37.3993796,7.5282769 L42.7372259,7.5282769 L42.7372259,6.32466099 L39.0838173,6.32466099 C39.1862493,5.96130524 39.482164,5.7001433 39.8349854,5.48440082 L41.2690337,4.59872119 C42.1567778,4.05368756 42.6917006,3.27020173 42.6917006,2.31639289 C42.6917006,1.05600264 41.7242871,0 40.0967561,0 C38.4236998,0 37.4676677,1.14684158 37.4676677,2.4185867 C37.4676677,2.56619997 37.4904303,2.73652298 37.5018117,2.83871678 L38.8220466,2.92955572 Z M31.845288,3.84929996 C31.845288,2.91820085 32.0046267,2.20284422 32.3688294,1.74864954 C32.6192188,1.41935839 32.9720402,1.20361592 33.506963,1.20361592 C34.0418857,1.20361592 34.3833258,1.41935839 34.6450965,1.74864954 C34.9979179,2.20284422 35.1572566,2.91820085 35.1572566,3.84929996 C35.1572566,4.78039906 34.9979179,5.49575569 34.6450965,5.94995037 C34.3833258,6.27924152 34.0418857,6.494984 33.506963,6.494984 C32.9720402,6.494984 32.6192188,6.27924152 32.3688294,5.94995037 C32.016008,5.49575569 31.845288,4.78039906 31.845288,3.84929996 L31.845288,3.84929996 Z M30.4909091,3.84929996 C30.4909091,4.82581853 30.6502478,5.74556277 31.1510265,6.494984 C31.6290426,7.21034062 32.4029734,7.69859991 33.506963,7.69859991 C34.6109525,7.69859991 35.373502,7.21034062 35.851518,6.494984 C36.3522968,5.74556277 36.5116355,4.82581853 36.5116355,3.84929996 C36.5116355,2.87278138 36.3522968,1.95303715 35.851518,1.20361592 C35.373502,0.488259286 34.6109525,0 33.506963,0 C32.4029734,0 31.6290426,0.488259286 31.1510265,1.20361592 C30.6502478,1.95303715 30.4909091,2.87278138 30.4909091,3.84929996 L30.4909091,3.84929996 Z" id="Combined-Shape" fill="#BBC7D1"></path>
                    <polygon id="Shape" fill="#DFE9EF" points="17.7214727 38.159082 34.6611273 27.239082 34.6611273 16.140462 17.7214727 27.060462"></polygon>
                    <path d="M23.5729127,14.450202 C23.4454764,12.379302 20.9256764,10.777962 17.7217855,10.777962 C14.5171127,10.777962 11.9973127,12.379302 11.8698764,14.450202 L11.8581491,14.450202 L11.8581491,17.668482 C11.8581491,19.818942 14.4334582,21.503742 17.7217855,21.503742 C21.0101127,21.503742 23.5862036,19.818942 23.5862036,17.668482 L23.5862036,14.450202 L23.5729127,14.450202 Z" id="Shape" fill="#DFE9EF"></path>
                    <polygon id="Shape" fill="#BBC7D1" points="17.7214727 38.159082 0.781818182 27.239082 0.781818182 16.140462 17.7214727 27.060462"></polygon>
                    <path d="M17.7214727,4.188678 L0,15.612558 L0,27.575418 L17.7214727,39.000078 L35.4429455,27.575418 L35.4429455,15.612558 L17.7214727,4.188678 Z M33.5673636,16.260738 L17.7214727,26.482638 L1.87010909,16.264638 L17.7214727,6.045858 L33.5673636,16.260738 Z M1.56363636,17.924478 L16.9396545,27.835938 L16.9396545,36.639018 L1.56363636,26.726778 L1.56363636,17.924478 Z M18.5032909,36.639018 L18.5032909,27.835938 L33.8621091,17.934618 L33.8793091,17.923698 L33.8793091,26.726778 L18.5032909,36.639018 Z" id="Shape" fill="#BAC9D1"></path>
                    <path d="M23.5721309,14.501994 C23.4454764,12.430314 20.9256764,10.829754 17.7217855,10.829754 C14.5171127,10.829754 11.9980945,12.430314 11.8706582,14.501994 L11.8581491,14.501994 L11.8581491,17.719494 C11.8581491,19.869954 14.4334582,21.554754 17.7217855,21.554754 C21.0101127,21.554754 23.5854218,19.869954 23.5854218,17.719494 L23.5854218,14.501994 L23.5721309,14.501994 Z M17.7217855,12.389754 C20.2556582,12.389754 22.0217855,13.588614 22.0217855,14.665014 C22.0217855,15.740634 20.2556582,16.939494 17.7217855,16.939494 C15.1871309,16.939494 13.4217855,15.740634 13.4217855,14.665014 C13.4217855,13.588614 15.1871309,12.389754 17.7217855,12.389754 L17.7217855,12.389754 Z M17.7217855,19.994754 C15.1871309,19.994754 13.4217855,18.795894 13.4217855,17.719494 L13.4217855,17.291274 C14.4842764,18.036954 16.0033491,18.499494 17.7217855,18.499494 C19.4402218,18.499494 20.9585127,18.036954 22.0217855,17.291274 L22.0217855,17.719494 C22.0217855,18.795894 20.2556582,19.994754 17.7217855,19.994754 L17.7217855,19.994754 Z" id="Shape" fill="#BAC9D1"></path>
                </g>
            </g>
        </g>
    </g>
</svg>