<?xml version="1.0" encoding="UTF-8" standalone="no"?>
<svg width="43px" height="54px" viewBox="0 0 43 54" version="1.1" xmlns="http://www.w3.org/2000/svg" xmlns:xlink="http://www.w3.org/1999/xlink">
    <!-- Generator: Sketch 3.8.3 (29802) - http://www.bohemiancoding.com/sketch -->
    <title>Icon</title>
    <desc>Created with Sketch.</desc>
    <defs>
        <rect id="path-1" x="0" y="0" width="49" height="58" rx="6"></rect>
    </defs>
    <g id="Module-02-Templates" stroke="none" stroke-width="1" fill="none" fill-rule="evenodd">
        <g id="#8-Web-App" transform="translate(-857.000000, -2017.000000)">
            <g id="Price-Tables-#2" transform="translate(0.000000, 1799.000000)">
                <g id="#2" transform="translate(540.000000, 218.000000)">
                    <g id="Icon" transform="translate(311.000000, 0.000000)">
                        <mask id="mask-2" fill="white">
                            <use xlink:href="#path-1"></use>
                        </mask>
                        <g id="Mask"></g>
                        <rect id="Background" fill-opacity="0.1" fill="#358ED7" mask="url(#mask-2)" transform="translate(40.922469, 17.672050) rotate(-39.000000) translate(-40.922469, -17.672050) " x="24.8440824" y="-56.1015259" width="32.1567735" height="147.547152"></rect>
                        <path d="M38,22.5316699 L37.8044444,23.3090211 C37.2177748,23.5335904 36.7496314,23.7048938 36.4,23.8229367 C36.0503686,23.9409795 35.6444468,24 35.1822222,24 C34.4711076,24 33.9185205,23.8315756 33.5244444,23.4947217 C33.1303684,23.1578678 32.9333333,22.7303289 32.9333333,22.2120921 C32.9333333,22.0105556 32.948148,21.8047035 32.9777778,21.5945298 C33.0074076,21.384356 33.0548145,21.1468343 33.12,20.8819578 L33.8488889,18.3598848 C33.9140744,18.118041 33.9688887,17.8891565 34.0133333,17.6732246 C34.057778,17.4572926 34.08,17.2600777 34.08,17.0815739 C34.08,16.7591155 34.0118525,16.5345496 33.8755556,16.4078695 C33.7392586,16.2811894 33.4785204,16.2178503 33.0933333,16.2178503 C32.9037028,16.2178503 32.7096306,16.2466408 32.5111111,16.3042226 C32.3125916,16.3618045 32.1422229,16.4165065 32,16.4683301 L32.1955556,15.6909789 C32.675558,15.5009587 33.1348126,15.3382924 33.5733333,15.202975 C34.011854,15.0676577 34.4266647,15 34.8177778,15 C35.5229665,15 36.0666648,15.1655454 36.4488889,15.4966411 C36.831113,15.8277368 37.0222222,16.2581547 37.0222222,16.7879079 C37.0222222,16.8973134 37.008889,17.0902098 36.9822222,17.3666027 C36.9555554,17.6429956 36.906667,17.896352 36.8355556,18.1266795 L36.1066667,20.6401152 C36.0474071,20.8416517 35.9940743,21.0719757 35.9466667,21.331094 C35.899259,21.5902124 35.8755556,21.7859878 35.8755556,21.9184261 C35.8755556,22.2524009 35.9525918,22.4798458 36.1066667,22.6007678 C36.2607415,22.7216897 36.5274055,22.7821497 36.9066667,22.7821497 C37.0844453,22.7821497 37.2859248,22.7519197 37.5111111,22.6914587 C37.7362974,22.6309978 37.8992588,22.5777354 38,22.5316699 L38,22.5316699 Z M38,11.5040872 C38,11.9182582 37.853691,12.2711157 37.5610687,12.5626703 C37.2684464,12.8542249 36.9160326,13 36.5038168,13 C36.091601,13 35.737915,12.8542249 35.4427481,12.5626703 C35.1475812,12.2711157 35,11.9182582 35,11.5040872 C35,11.0899162 35.1475812,10.7356963 35.4427481,10.4414169 C35.737915,10.1471375 36.091601,10 36.5038168,10 C36.9160326,10 37.2684464,10.1471375 37.5610687,10.4414169 C37.853691,10.7356963 38,11.0899162 38,11.5040872 L38,11.5040872 Z" fill="#86939E" mask="url(#mask-2)"></path>
                    </g>
                </g>
            </g>
        </g>
    </g>
</svg>