<?xml version="1.0" encoding="UTF-8" standalone="no"?>
<svg width="60px" height="29px" viewBox="0 0 60 29" version="1.1" xmlns="http://www.w3.org/2000/svg" xmlns:xlink="http://www.w3.org/1999/xlink">
    <!-- Generator: Sketch 3.8.3 (29802) - http://www.bohemiancoding.com/sketch -->
    <title>Combined Shape</title>
    <desc>Created with Sketch.</desc>
    <defs></defs>
    <g id="Module-02-Templates" stroke="none" stroke-width="1" fill="none" fill-rule="evenodd">
        <g id="#8-Web-App" transform="translate(-80.000000, -50.000000)" fill="#86939E">
            <g id="Header-#8">
                <g id="Menu" transform="translate(80.000000, 40.000000)">
                    <g id="M02-Logo-Blue" transform="translate(0.000000, 10.000000)">
                        <path d="M54.6561061,3.75584066 C54.6415485,3.59570792 54.6124335,3.42101766 54.6124335,3.27544244 C54.6124335,2.30008847 55.1510618,1.52853981 56.2574335,1.52853981 C57.3201326,1.52853981 57.8442034,2.22730086 57.8442034,2.99884952 C57.8442034,3.68305305 57.4802653,4.25079641 56.6359291,4.7748672 L55.0782742,5.75022117 C53.4332742,6.76924771 52.8655309,8.03575212 52.8364158,9.65163706 L59.6638936,9.65163706 L59.6638936,8.10853973 L54.9909291,8.10853973 C55.1219468,7.64269903 55.5004423,7.30787602 55.9517255,7.0312831 L57.7859733,5.89579639 C58.92146,5.19703534 59.6056635,4.19256632 59.6056635,2.96973448 C59.6056635,1.35384954 58.3682742,0 56.2865485,0 C54.1465928,0 52.923761,1.47030972 52.923761,3.10075218 C52.923761,3.28999996 52.952876,3.50836279 52.9674335,3.63938049 L54.6561061,3.75584066 Z M45.7323451,4.93499994 C45.7323451,3.74128314 45.9361504,2.82415926 46.4019911,2.24185838 C46.7222566,1.81969024 47.1735398,1.54309733 47.8577433,1.54309733 C48.5419468,1.54309733 48.9786725,1.81969024 49.3134955,2.24185838 C49.7647787,2.82415926 49.968584,3.74128314 49.968584,4.93499994 C49.968584,6.12871674 49.7647787,7.04584063 49.3134955,7.6281415 C48.9786725,8.05030964 48.5419468,8.32690256 47.8577433,8.32690256 C47.1735398,8.32690256 46.7222566,8.05030964 46.4019911,7.6281415 C45.9507079,7.04584063 45.7323451,6.12871674 45.7323451,4.93499994 L45.7323451,4.93499994 Z M44,4.93499994 C44,6.18694683 44.2038053,7.36610611 44.8443363,8.32690256 C45.4557522,9.24402644 46.4456637,9.86999989 47.8577433,9.86999989 C49.2698229,9.86999989 50.2451769,9.24402644 50.8565928,8.32690256 C51.4971238,7.36610611 51.7009291,6.18694683 51.7009291,4.93499994 C51.7009291,3.68305305 51.4971238,2.50389378 50.8565928,1.54309733 C50.2451769,0.625973444 49.2698229,0 47.8577433,0 C46.4456637,0 45.4557522,0.625973444 44.8443363,1.54309733 C44.2038053,2.50389378 44,3.68305305 44,4.93499994 Z M5.23937382,28.1545073 L5.23937382,11.6599475 C5.23937382,7.56474642 7.7745547,4.72085679 11.5491573,4.72085679 C15.6054467,4.72085679 17.2955673,7.45099083 17.2955673,10.977414 L17.2955673,28.1545073 L22.5912785,28.1545073 L22.5912785,11.6030697 C22.5912785,7.678502 25.1264594,4.72085679 28.8447247,4.72085679 C32.8446767,4.72085679 34.5911347,7.39411304 34.5911347,10.977414 L34.5911347,28.1545073 L39.8305085,28.1545073 L39.8305085,10.408636 C39.8305085,3.24203418 35.2108455,0 30.4785079,0 C27.0419294,0 23.5490135,1.25131144 21.4081941,5.17587913 C19.9434229,1.64945599 16.6758564,0 13.2956153,0 C10.1407235,0 6.76048234,1.42194481 5.07036176,4.43646782 L5.07036176,0.796289096 L0,0.796289096 L0,28.1545073 L5.23937382,28.1545073 Z" id="Combined-Shape"></path>
                    </g>
                </g>
            </g>
        </g>
    </g>
</svg>