<?xml version="1.0" encoding="UTF-8" standalone="no"?>
<svg width="14px" height="13px" viewBox="0 0 14 13" version="1.1" xmlns="http://www.w3.org/2000/svg" xmlns:xlink="http://www.w3.org/1999/xlink">
    <!-- Generator: Sketch 3.8.3 (29802) - http://www.bohemiancoding.com/sketch -->
    <title>Icon</title>
    <desc>Created with Sketch.</desc>
    <defs></defs>
    <g id="Module-02-Templates" stroke="none" stroke-width="1" fill="none" fill-rule="evenodd">
        <g id="#8-Web-App" transform="translate(-1084.000000, -486.000000)" fill="#FFFFFF">
            <g id="Header-#8">
                <g id="Popup-#3" transform="translate(1053.000000, 383.000000)">
                    <path d="M31.5416667,115.359848 L33.905303,115.359848 L33.905303,108.268939 L31.5416667,108.268939 L31.5416667,115.359848 L31.5416667,115.359848 Z M44.5416667,108.859848 C44.5416667,108.206894 44.012803,107.67803 43.3598485,107.67803 L39.6282576,107.67803 L40.1925758,104.977576 C40.2043939,104.918485 40.2132576,104.856439 40.2132576,104.791439 C40.2132576,104.546212 40.112803,104.324621 39.9532576,104.165076 L39.3239394,103.541667 L35.432803,107.432803 C35.2200758,107.648485 35.0871212,107.943939 35.0871212,108.268939 L35.0871212,114.17803 C35.0871212,114.830985 35.6159848,115.359848 36.2689394,115.359848 L41.5871212,115.359848 C42.0775758,115.359848 42.4971212,115.061439 42.6743939,114.638939 L44.4559848,110.47303 C44.5091667,110.337121 44.5416667,110.192348 44.5416667,110.041667 L44.5416667,108.910076 L44.5357576,108.904167 L44.5416667,108.859848 L44.5416667,108.859848 Z" id="Icon"></path>
                </g>
            </g>
        </g>
    </g>
</svg>