<?xml version="1.0" encoding="UTF-8" standalone="no"?>
<svg width="16px" height="12px" viewBox="0 0 16 12" version="1.1" xmlns="http://www.w3.org/2000/svg" xmlns:xlink="http://www.w3.org/1999/xlink">
    <!-- Generator: Sketch 3.8.3 (29802) - http://www.bohemiancoding.com/sketch -->
    <title>Icon</title>
    <desc>Created with Sketch.</desc>
    <defs></defs>
    <g id="Module-02-Templates" stroke="none" stroke-width="1" fill="none" fill-rule="evenodd">
        <g id="#8-Web-App" transform="translate(-1083.000000, -536.000000)" fill="#FFFFFF">
            <g id="Header-#8">
                <g id="Popup-#3" transform="translate(1053.000000, 383.000000)">
                    <path d="M45.8772319,157.900904 L41.5308931,153.15563 C41.2391293,152.83691 40.7026605,153.04043 40.7026605,153.47003 L40.7026605,155.141387 C40.7026605,155.295947 40.5840726,155.423147 40.4278378,155.440427 C35.6447945,155.974186 31.5525725,159.216102 30.0481068,163.814015 C29.7525783,164.717374 30.8895158,165.403293 31.5662195,164.727454 L31.596337,164.697214 C33.9196236,162.377857 37.0876134,161.072739 40.3930144,161.072739 C40.5638374,161.072739 40.7026605,161.209539 40.7026605,161.378019 L40.7026605,162.960577 C40.7026605,163.390176 41.2391293,163.593696 41.5308931,163.274976 L45.8772319,158.529703 C46.0409961,158.351143 46.0409961,158.079463 45.8772319,157.900904" id="Icon"></path>
                </g>
            </g>
        </g>
    </g>
</svg>