<?xml version="1.0" encoding="UTF-8" standalone="no"?>
<svg width="15px" height="9px" viewBox="0 0 15 9" version="1.1" xmlns="http://www.w3.org/2000/svg" xmlns:xlink="http://www.w3.org/1999/xlink">
    <!-- Generator: Sketch 3.8.3 (29802) - http://www.bohemiancoding.com/sketch -->
    <title>Icon</title>
    <desc>Created with Sketch.</desc>
    <defs></defs>
    <g id="Module-02-Templates" stroke="none" stroke-width="1" fill="none" fill-rule="evenodd">
        <g id="#8-Web-App" transform="translate(-1083.000000, -513.000000)" fill="#FFFFFF">
            <g id="Header-#8">
                <g id="Popup-#3" transform="translate(1053.000000, 383.000000)">
                    <path d="M44.4490009,133.085591 C43.0039072,131.852672 40.5708092,130.060932 37.5099331,130 L37.5005086,130 L37.491084,130 C34.4312551,130.060932 31.9955391,131.852672 30.5504454,133.085591 C30.4813322,133.144328 30.0080117,133.524743 30.0001579,134.011104 C29.9943985,134.353642 30.1467616,134.606703 30.3661436,134.818594 C31.5468271,136.015832 34.1233873,138.144621 37.4916076,138.159991 L37.4916076,138.161089 L37.5010321,138.161089 L37.5104567,138.161089 L37.5104567,138.159991 C40.88496,138.144621 43.4536665,136.015832 44.6348735,134.818594 C44.8542555,134.606703 45.0060951,134.353642 44.999812,134.011104 C44.9909111,133.524743 44.5186377,133.144328 44.4490009,133.085591 Z M37.5005086,137.23887 C35.8449338,137.227342 34.5061277,135.817116 34.5061277,134.079172 C34.5061277,132.341229 35.8449338,130.931002 37.5005086,130.920023 C39.160272,130.931002 40.4943658,132.341229 40.4943658,134.079172 C40.4943658,135.817116 39.160272,137.226794 37.5005086,137.23887 Z M37.5099331,132.851194 C37.5067916,132.850645 37.5036501,132.850645 37.5005086,132.850645 L37.491084,132.850645 L37.491084,132.851194 C36.8575466,132.867662 36.3480987,133.411112 36.3480987,134.079172 C36.3480987,134.747232 36.857023,135.291231 37.491084,135.307151 L37.491084,135.308249 C37.4942255,135.308249 37.497367,135.307151 37.5005086,135.307151 C37.5031265,135.307151 37.506268,135.308249 37.5099331,135.308249 L37.5099331,135.307151 C38.1481828,135.291231 38.6529184,134.747232 38.6529184,134.079172 C38.6529184,133.411112 38.1481828,132.867662 37.5099331,132.851194 Z" id="Icon"></path>
                </g>
            </g>
        </g>
    </g>
</svg>