<?xml version="1.0" encoding="UTF-8" standalone="no"?>
<svg width="5px" height="12px" viewBox="0 0 5 12" version="1.1" xmlns="http://www.w3.org/2000/svg" xmlns:xlink="http://www.w3.org/1999/xlink">
    <!-- Generator: Sketch 3.8.3 (29802) - http://www.bohemiancoding.com/sketch -->
    <title>Icon</title>
    <desc>Created with Sketch.</desc>
    <defs></defs>
    <g id="Module-02-Templates" stroke="none" stroke-width="1" fill="none" fill-rule="evenodd">
        <g id="#8-Web-App" transform="translate(-656.000000, -534.000000)" fill="#FFFFFF">
            <g id="Header-#8">
                <g id="Popup-#2" transform="translate(635.000000, 518.000000)">
                    <g id="Icon" transform="translate(11.000000, 10.000000)">
                        <path d="M14.8491379,16.0933908 L14.691092,16.7399425 C14.2169517,16.9267251 13.8386029,17.0692045 13.5560345,17.1673851 C13.273466,17.2655656 12.9454042,17.3146552 12.5718391,17.3146552 C11.9971236,17.3146552 11.5505284,17.1745704 11.2320402,16.8943966 C10.913552,16.6142227 10.7543103,16.2586228 10.7543103,15.8275862 C10.7543103,15.6599608 10.7662834,15.4887461 10.7902299,15.3139368 C10.8141764,15.1391275 10.8524902,14.941572 10.9051724,14.7212644 L11.4942529,12.6235632 C11.5469351,12.4224128 11.5912355,12.2320411 11.6271552,12.0524425 C11.6630749,11.8728439 11.6810345,11.708813 11.6810345,11.5603448 C11.6810345,11.2921443 11.6259584,11.1053645 11.5158046,11 C11.4056508,10.8946355 11.1949249,10.841954 10.8836207,10.841954 C10.7303632,10.841954 10.5735161,10.8659001 10.4130747,10.9137931 C10.2526333,10.9616861 10.1149431,11.0071837 10,11.0502874 L10.158046,10.4037356 C10.545979,10.2456889 10.9171438,10.1103933 11.2715517,9.99784483 C11.6259596,9.88529637 11.9612053,9.82902299 12.2772989,9.82902299 C12.8472251,9.82902299 13.2866364,9.96671318 13.595546,10.2420977 C13.9044556,10.5174822 14.058908,10.8754767 14.058908,11.316092 C14.058908,11.4070886 14.0481323,11.5675276 14.0265805,11.7974138 C14.0050286,12.0273 13.9655175,12.2380259 13.908046,12.4295977 L13.3189655,14.5201149 C13.2710726,14.6877403 13.2279695,14.8793093 13.1896552,15.0948276 C13.1513408,15.3103459 13.1321839,15.4731795 13.1321839,15.5833333 C13.1321839,15.8611125 13.1944438,16.0502869 13.3189655,16.1508621 C13.4434872,16.2514373 13.6590023,16.3017241 13.9655172,16.3017241 C14.1091961,16.3017241 14.2720297,16.2765807 14.454023,16.2262931 C14.6360162,16.1760055 14.7677199,16.1317052 14.8491379,16.0933908 L14.8491379,16.0933908 Z M15,7.32183908 C15,7.68582557 14.8623098,7.99592784 14.5869253,8.25215517 C14.3115408,8.50838251 13.979887,8.63649425 13.591954,8.63649425 C13.204021,8.63649425 12.87117,8.50838251 12.5933908,8.25215517 C12.3156116,7.99592784 12.1767241,7.68582557 12.1767241,7.32183908 C12.1767241,6.95785259 12.3156116,6.64655302 12.5933908,6.38793103 C12.87117,6.12930905 13.204021,6 13.591954,6 C13.979887,6 14.3115408,6.12930905 14.5869253,6.38793103 C14.8623098,6.64655302 15,6.95785259 15,7.32183908 L15,7.32183908 Z"></path>
                    </g>
                </g>
            </g>
        </g>
    </g>
</svg>